<?xml version="1.0" encoding="UTF-8" standalone="no"?>
<!DOCTYPE svg PUBLIC "-//W3C//DTD SVG 1.1//EN"
 "http://www.w3.org/Graphics/SVG/1.1/DTD/svg11.dtd">
<!-- Generated by graphviz version 5.0.0 (20220707.1540)
 -->
<!-- Title: dependencies Pages: 1 -->
<svg width="814pt" height="174pt"
 viewBox="0.00 0.00 814.00 173.80" xmlns="http://www.w3.org/2000/svg" xmlns:xlink="http://www.w3.org/1999/xlink">
<g id="graph0" class="graph" transform="scale(1 1) rotate(0) translate(4 169.8)">
<title>dependencies</title>
<polygon fill="white" stroke="transparent" points="-4,4 -4,-169.8 810,-169.8 810,4 -4,4"/>
<text text-anchor="middle" x="403" y="-8.2" font-family="sans-serif" font-size="14.00">dependencies</text>
<g id="clust1" class="cluster">
<title>cluster_SheduleModule</title>
<polygon fill="none" stroke="black" stroke-dasharray="1,5" points="8,-32.8 8,-157.8 798,-157.8 798,-32.8 8,-32.8"/>
</g>
<g id="clust6" class="cluster">
<title>cluster_SheduleModule_providers</title>
<polygon fill="none" stroke="black" points="16,-40.8 16,-92.8 790,-92.8 790,-40.8 16,-40.8"/>
</g>
<!-- DebtService -->
<g id="node1" class="node">
<title>DebtService</title>
<ellipse fill="#fdb462" stroke="black" cx="723" cy="-66.8" rx="58.53" ry="18"/>
<text text-anchor="middle" x="723" y="-62.6" font-family="Times,serif" font-size="14.00">DebtService</text>
</g>
<!-- SheduleModule -->
<g id="node6" class="node">
<title>SheduleModule</title>
<polygon fill="#8dd3c7" stroke="black" points="458.16,-149.8 455.16,-153.8 434.16,-153.8 431.16,-149.8 353.84,-149.8 353.84,-113.8 458.16,-113.8 458.16,-149.8"/>
<text text-anchor="middle" x="406" y="-127.6" font-family="Times,serif" font-size="14.00">SheduleModule</text>
</g>
<!-- DebtService&#45;&gt;SheduleModule -->
<g id="edge1" class="edge">
<title>DebtService&#45;&gt;SheduleModule</title>
<path fill="none" stroke="black" d="M723,-85.08C723,-106.12 723,-137.8 723,-137.8 723,-137.8 468.35,-137.8 468.35,-137.8"/>
<polygon fill="black" stroke="black" points="468.35,-134.3 458.35,-137.8 468.35,-141.3 468.35,-134.3"/>
</g>
<!-- GetPassService -->
<g id="node2" class="node">
<title>GetPassService</title>
<ellipse fill="#fdb462" stroke="black" cx="575" cy="-66.8" rx="71.22" ry="18"/>
<text text-anchor="middle" x="575" y="-62.6" font-family="Times,serif" font-size="14.00">GetPassService</text>
</g>
<!-- GetPassService&#45;&gt;SheduleModule -->
<g id="edge2" class="edge">
<title>GetPassService&#45;&gt;SheduleModule</title>
<path fill="none" stroke="black" d="M575,-84.82C575,-102.17 575,-125.8 575,-125.8 575,-125.8 468.55,-125.8 468.55,-125.8"/>
<polygon fill="black" stroke="black" points="468.55,-122.3 458.55,-125.8 468.55,-129.3 468.55,-122.3"/>
</g>
<!-- PokazaniaService -->
<g id="node3" class="node">
<title>PokazaniaService</title>
<ellipse fill="#fdb462" stroke="black" cx="406" cy="-66.8" rx="79.85" ry="18"/>
<text text-anchor="middle" x="406" y="-62.6" font-family="Times,serif" font-size="14.00">PokazaniaService</text>
</g>
<!-- PokazaniaService&#45;&gt;SheduleModule -->
<g id="edge3" class="edge">
<title>PokazaniaService&#45;&gt;SheduleModule</title>
<path fill="none" stroke="black" d="M406,-84.91C406,-84.91 406,-103.79 406,-103.79"/>
<polygon fill="black" stroke="black" points="402.5,-103.79 406,-113.79 409.5,-103.79 402.5,-103.79"/>
</g>
<!-- RolesService -->
<g id="node4" class="node">
<title>RolesService</title>
<ellipse fill="#fdb462" stroke="black" cx="246" cy="-66.8" rx="61.98" ry="18"/>
<text text-anchor="middle" x="246" y="-62.6" font-family="Times,serif" font-size="14.00">RolesService</text>
</g>
<!-- RolesService&#45;&gt;SheduleModule -->
<g id="edge4" class="edge">
<title>RolesService&#45;&gt;SheduleModule</title>
<path fill="none" stroke="black" d="M246,-84.82C246,-102.17 246,-125.8 246,-125.8 246,-125.8 343.61,-125.8 343.61,-125.8"/>
<polygon fill="black" stroke="black" points="343.61,-129.3 353.61,-125.8 343.61,-122.3 343.61,-129.3"/>
</g>
<!-- SheduleService -->
<g id="node5" class="node">
<title>SheduleService</title>
<ellipse fill="#fdb462" stroke="black" cx="95" cy="-66.8" rx="71.21" ry="18"/>
<text text-anchor="middle" x="95" y="-62.6" font-family="Times,serif" font-size="14.00">SheduleService</text>
</g>
<!-- SheduleService&#45;&gt;SheduleModule -->
<g id="edge5" class="edge">
<title>SheduleService&#45;&gt;SheduleModule</title>
<path fill="none" stroke="black" d="M95,-85.08C95,-106.12 95,-137.8 95,-137.8 95,-137.8 343.59,-137.8 343.59,-137.8"/>
<polygon fill="black" stroke="black" points="343.59,-141.3 353.59,-137.8 343.59,-134.3 343.59,-141.3"/>
</g>
</g>
</svg>
