<?xml version="1.0" encoding="UTF-8" standalone="no"?>
<!DOCTYPE svg PUBLIC "-//W3C//DTD SVG 1.1//EN"
 "http://www.w3.org/Graphics/SVG/1.1/DTD/svg11.dtd">
<!-- Generated by graphviz version 5.0.0 (20220707.1540)
 -->
<!-- Title: dependencies Pages: 1 -->
<svg width="262pt" height="247pt"
 viewBox="0.00 0.00 262.00 246.80" xmlns="http://www.w3.org/2000/svg" xmlns:xlink="http://www.w3.org/1999/xlink">
<g id="graph0" class="graph" transform="scale(1 1) rotate(0) translate(4 242.8)">
<title>dependencies</title>
<polygon fill="white" stroke="transparent" points="-4,4 -4,-242.8 258,-242.8 258,4 -4,4"/>
<text text-anchor="middle" x="127" y="-8.2" font-family="sans-serif" font-size="14.00">dependencies</text>
<g id="clust1" class="cluster">
<title>cluster_RolesModule</title>
<polygon fill="none" stroke="black" stroke-dasharray="1,5" points="8,-32.8 8,-230.8 246,-230.8 246,-32.8 8,-32.8"/>
</g>
<g id="clust4" class="cluster">
<title>cluster_RolesModule_exports</title>
<polygon fill="none" stroke="black" points="16,-170.8 16,-222.8 238,-222.8 238,-170.8 16,-170.8"/>
</g>
<g id="clust6" class="cluster">
<title>cluster_RolesModule_providers</title>
<polygon fill="none" stroke="black" points="57,-40.8 57,-92.8 197,-92.8 197,-40.8 57,-40.8"/>
</g>
<!-- RolesModule  -->
<g id="node1" class="node">
<title>RolesModule </title>
<polygon fill="#fb8072" stroke="black" points="230.44,-214.8 135.56,-214.8 135.56,-178.8 230.44,-178.8 230.44,-214.8"/>
<text text-anchor="middle" x="183" y="-192.6" font-family="Times,serif" font-size="14.00">RolesModule </text>
</g>
<!-- RolesService  -->
<g id="node2" class="node">
<title>RolesService </title>
<polygon fill="#fb8072" stroke="black" points="117.87,-214.8 24.13,-214.8 24.13,-178.8 117.87,-178.8 117.87,-214.8"/>
<text text-anchor="middle" x="71" y="-192.6" font-family="Times,serif" font-size="14.00">RolesService </text>
</g>
<!-- RolesModule -->
<g id="node3" class="node">
<title>RolesModule</title>
<polygon fill="#8dd3c7" stroke="black" points="172.94,-149.8 169.94,-153.8 148.94,-153.8 145.94,-149.8 81.06,-149.8 81.06,-113.8 172.94,-113.8 172.94,-149.8"/>
<text text-anchor="middle" x="127" y="-127.6" font-family="Times,serif" font-size="14.00">RolesModule</text>
</g>
<!-- RolesModule&#45;&gt;RolesModule  -->
<g id="edge1" class="edge">
<title>RolesModule&#45;&gt;RolesModule </title>
<path fill="none" stroke="black" stroke-dasharray="5,2" d="M154.12,-149.91C154.12,-149.91 154.12,-168.79 154.12,-168.79"/>
<polygon fill="black" stroke="black" points="150.63,-168.79 154.12,-178.79 157.63,-168.79 150.63,-168.79"/>
</g>
<!-- RolesModule&#45;&gt;RolesService  -->
<g id="edge2" class="edge">
<title>RolesModule&#45;&gt;RolesService </title>
<path fill="none" stroke="black" stroke-dasharray="5,2" d="M99.48,-149.91C99.48,-149.91 99.48,-168.79 99.48,-168.79"/>
<polygon fill="black" stroke="black" points="95.98,-168.79 99.48,-178.79 102.98,-168.79 95.98,-168.79"/>
</g>
<!-- RolesService -->
<g id="node4" class="node">
<title>RolesService</title>
<ellipse fill="#fdb462" stroke="black" cx="127" cy="-66.8" rx="61.98" ry="18"/>
<text text-anchor="middle" x="127" y="-62.6" font-family="Times,serif" font-size="14.00">RolesService</text>
</g>
<!-- RolesService&#45;&gt;RolesModule -->
<g id="edge3" class="edge">
<title>RolesService&#45;&gt;RolesModule</title>
<path fill="none" stroke="black" d="M127,-84.91C127,-84.91 127,-103.79 127,-103.79"/>
<polygon fill="black" stroke="black" points="123.5,-103.79 127,-113.79 130.5,-103.79 123.5,-103.79"/>
</g>
</g>
</svg>
