<?xml version="1.0" encoding="UTF-8" standalone="no"?>
<!DOCTYPE svg PUBLIC "-//W3C//DTD SVG 1.1//EN"
 "http://www.w3.org/Graphics/SVG/1.1/DTD/svg11.dtd">
<!-- Generated by graphviz version 5.0.0 (20220707.1540)
 -->
<!-- Title: dependencies Pages: 1 -->
<svg width="1074pt" height="174pt"
 viewBox="0.00 0.00 1074.00 173.80" xmlns="http://www.w3.org/2000/svg" xmlns:xlink="http://www.w3.org/1999/xlink">
<g id="graph0" class="graph" transform="scale(1 1) rotate(0) translate(4 169.8)">
<title>dependencies</title>
<polygon fill="white" stroke="transparent" points="-4,4 -4,-169.8 1070,-169.8 1070,4 -4,4"/>
<text text-anchor="middle" x="533" y="-8.2" font-family="sans-serif" font-size="14.00">dependencies</text>
<g id="clust1" class="cluster">
<title>cluster_AppModule</title>
<polygon fill="none" stroke="black" stroke-dasharray="1,5" points="8,-32.8 8,-157.8 1058,-157.8 1058,-32.8 8,-32.8"/>
</g>
<g id="clust3" class="cluster">
<title>cluster_AppModule_imports</title>
<polygon fill="none" stroke="black" points="16,-40.8 16,-92.8 1050,-92.8 1050,-40.8 16,-40.8"/>
</g>
<!-- AppealModule -->
<g id="node1" class="node">
<title>AppealModule</title>
<polygon fill="#8dd3c7" stroke="black" points="1041.98,-84.8 1038.98,-88.8 1017.98,-88.8 1014.98,-84.8 942.02,-84.8 942.02,-48.8 1041.98,-48.8 1041.98,-84.8"/>
<text text-anchor="middle" x="992" y="-62.6" font-family="Times,serif" font-size="14.00">AppealModule</text>
</g>
<!-- AppModule -->
<g id="node10" class="node">
<title>AppModule</title>
<polygon fill="#8dd3c7" stroke="black" points="512.66,-149.8 509.66,-153.8 488.66,-153.8 485.66,-149.8 429.34,-149.8 429.34,-113.8 512.66,-113.8 512.66,-149.8"/>
<text text-anchor="middle" x="471" y="-127.6" font-family="Times,serif" font-size="14.00">AppModule</text>
</g>
<!-- AppealModule&#45;&gt;AppModule -->
<g id="edge1" class="edge">
<title>AppealModule&#45;&gt;AppModule</title>
<path fill="none" stroke="black" d="M992,-84.81C992,-107.29 992,-142.8 992,-142.8 992,-142.8 522.75,-142.8 522.75,-142.8"/>
<polygon fill="black" stroke="black" points="522.75,-139.3 512.75,-142.8 522.75,-146.3 522.75,-139.3"/>
</g>
<!-- AuthModule -->
<g id="node2" class="node">
<title>AuthModule</title>
<polygon fill="#8dd3c7" stroke="black" points="923.55,-84.8 920.55,-88.8 899.55,-88.8 896.55,-84.8 836.45,-84.8 836.45,-48.8 923.55,-48.8 923.55,-84.8"/>
<text text-anchor="middle" x="880" y="-62.6" font-family="Times,serif" font-size="14.00">AuthModule</text>
</g>
<!-- AuthModule&#45;&gt;AppModule -->
<g id="edge2" class="edge">
<title>AuthModule&#45;&gt;AppModule</title>
<path fill="none" stroke="black" d="M880,-84.93C880,-105.37 880,-135.8 880,-135.8 880,-135.8 522.85,-135.8 522.85,-135.8"/>
<polygon fill="black" stroke="black" points="522.85,-132.3 512.85,-135.8 522.85,-139.3 522.85,-132.3"/>
</g>
<!-- GetPassModule -->
<g id="node3" class="node">
<title>GetPassModule</title>
<polygon fill="#8dd3c7" stroke="black" points="818.16,-84.8 815.16,-88.8 794.16,-88.8 791.16,-84.8 713.84,-84.8 713.84,-48.8 818.16,-48.8 818.16,-84.8"/>
<text text-anchor="middle" x="766" y="-62.6" font-family="Times,serif" font-size="14.00">GetPassModule</text>
</g>
<!-- GetPassModule&#45;&gt;AppModule -->
<g id="edge3" class="edge">
<title>GetPassModule&#45;&gt;AppModule</title>
<path fill="none" stroke="black" d="M766,-85.07C766,-103.36 766,-128.8 766,-128.8 766,-128.8 522.95,-128.8 522.95,-128.8"/>
<polygon fill="black" stroke="black" points="522.95,-125.3 512.95,-128.8 522.95,-132.3 522.95,-125.3"/>
</g>
<!-- LoggerModule -->
<g id="node4" class="node">
<title>LoggerModule</title>
<polygon fill="#8dd3c7" stroke="black" points="695.98,-84.8 692.98,-88.8 671.98,-88.8 668.98,-84.8 596.02,-84.8 596.02,-48.8 695.98,-48.8 695.98,-84.8"/>
<text text-anchor="middle" x="646" y="-62.6" font-family="Times,serif" font-size="14.00">LoggerModule</text>
</g>
<!-- LoggerModule&#45;&gt;AppModule -->
<g id="edge4" class="edge">
<title>LoggerModule&#45;&gt;AppModule</title>
<path fill="none" stroke="black" d="M646,-84.81C646,-100.85 646,-121.8 646,-121.8 646,-121.8 522.92,-121.8 522.92,-121.8"/>
<polygon fill="black" stroke="black" points="522.92,-118.3 512.92,-121.8 522.92,-125.3 522.92,-118.3"/>
</g>
<!-- NewsModule -->
<g id="node5" class="node">
<title>NewsModule</title>
<polygon fill="#8dd3c7" stroke="black" points="577.94,-84.8 574.94,-88.8 553.94,-88.8 550.94,-84.8 486.06,-84.8 486.06,-48.8 577.94,-48.8 577.94,-84.8"/>
<text text-anchor="middle" x="532" y="-62.6" font-family="Times,serif" font-size="14.00">NewsModule</text>
</g>
<!-- NewsModule&#45;&gt;AppModule -->
<g id="edge5" class="edge">
<title>NewsModule&#45;&gt;AppModule</title>
<path fill="none" stroke="black" d="M499.56,-84.91C499.56,-84.91 499.56,-103.79 499.56,-103.79"/>
<polygon fill="black" stroke="black" points="496.06,-103.79 499.56,-113.79 503.06,-103.79 496.06,-103.79"/>
</g>
<!-- PokazaniaModule -->
<g id="node6" class="node">
<title>PokazaniaModule</title>
<polygon fill="#8dd3c7" stroke="black" points="468.58,-84.8 465.58,-88.8 444.58,-88.8 441.58,-84.8 351.42,-84.8 351.42,-48.8 468.58,-48.8 468.58,-84.8"/>
<text text-anchor="middle" x="410" y="-62.6" font-family="Times,serif" font-size="14.00">PokazaniaModule</text>
</g>
<!-- PokazaniaModule&#45;&gt;AppModule -->
<g id="edge6" class="edge">
<title>PokazaniaModule&#45;&gt;AppModule</title>
<path fill="none" stroke="black" d="M448.86,-84.91C448.86,-84.91 448.86,-103.79 448.86,-103.79"/>
<polygon fill="black" stroke="black" points="445.36,-103.79 448.86,-113.79 452.36,-103.79 445.36,-103.79"/>
</g>
<!-- RolesModule -->
<g id="node7" class="node">
<title>RolesModule</title>
<polygon fill="#8dd3c7" stroke="black" points="333.94,-84.8 330.94,-88.8 309.94,-88.8 306.94,-84.8 242.06,-84.8 242.06,-48.8 333.94,-48.8 333.94,-84.8"/>
<text text-anchor="middle" x="288" y="-62.6" font-family="Times,serif" font-size="14.00">RolesModule</text>
</g>
<!-- RolesModule&#45;&gt;AppModule -->
<g id="edge7" class="edge">
<title>RolesModule&#45;&gt;AppModule</title>
<path fill="none" stroke="black" d="M288,-84.81C288,-100.85 288,-121.8 288,-121.8 288,-121.8 419.02,-121.8 419.02,-121.8"/>
<polygon fill="black" stroke="black" points="419.02,-125.3 429.02,-121.8 419.02,-118.3 419.02,-125.3"/>
</g>
<!-- SheduleModule -->
<g id="node8" class="node">
<title>SheduleModule</title>
<polygon fill="#8dd3c7" stroke="black" points="224.16,-84.8 221.16,-88.8 200.16,-88.8 197.16,-84.8 119.84,-84.8 119.84,-48.8 224.16,-48.8 224.16,-84.8"/>
<text text-anchor="middle" x="172" y="-62.6" font-family="Times,serif" font-size="14.00">SheduleModule</text>
</g>
<!-- SheduleModule&#45;&gt;AppModule -->
<g id="edge8" class="edge">
<title>SheduleModule&#45;&gt;AppModule</title>
<path fill="none" stroke="black" d="M172,-85.07C172,-103.36 172,-128.8 172,-128.8 172,-128.8 419.11,-128.8 419.11,-128.8"/>
<polygon fill="black" stroke="black" points="419.11,-132.3 429.11,-128.8 419.11,-125.3 419.11,-132.3"/>
</g>
<!-- SntModule -->
<g id="node9" class="node">
<title>SntModule</title>
<polygon fill="#8dd3c7" stroke="black" points="102.23,-84.8 99.23,-88.8 78.23,-88.8 75.23,-84.8 23.77,-84.8 23.77,-48.8 102.23,-48.8 102.23,-84.8"/>
<text text-anchor="middle" x="63" y="-62.6" font-family="Times,serif" font-size="14.00">SntModule</text>
</g>
<!-- SntModule&#45;&gt;AppModule -->
<g id="edge9" class="edge">
<title>SntModule&#45;&gt;AppModule</title>
<path fill="none" stroke="black" d="M76.04,-84.93C76.04,-105.37 76.04,-135.8 76.04,-135.8 76.04,-135.8 419.11,-135.8 419.11,-135.8"/>
<polygon fill="black" stroke="black" points="419.11,-139.3 429.11,-135.8 419.11,-132.3 419.11,-139.3"/>
</g>
<!-- SntModule&#45;&gt;AppModule -->
<g id="edge10" class="edge">
<title>SntModule&#45;&gt;AppModule</title>
<path fill="none" stroke="black" d="M49.96,-84.81C49.96,-107.29 49.96,-142.8 49.96,-142.8 49.96,-142.8 419.09,-142.8 419.09,-142.8"/>
<polygon fill="black" stroke="black" points="419.09,-146.3 429.09,-142.8 419.09,-139.3 419.09,-146.3"/>
</g>
</g>
</svg>
