<?xml version="1.0" encoding="UTF-8" standalone="no"?>
<!DOCTYPE svg PUBLIC "-//W3C//DTD SVG 1.1//EN"
 "http://www.w3.org/Graphics/SVG/1.1/DTD/svg11.dtd">
<!-- Generated by graphviz version 5.0.0 (20220707.1540)
 -->
<!-- Title: dependencies Pages: 1 -->
<svg width="314pt" height="247pt"
 viewBox="0.00 0.00 314.00 246.80" xmlns="http://www.w3.org/2000/svg" xmlns:xlink="http://www.w3.org/1999/xlink">
<g id="graph0" class="graph" transform="scale(1 1) rotate(0) translate(4 242.8)">
<title>dependencies</title>
<polygon fill="white" stroke="transparent" points="-4,4 -4,-242.8 310,-242.8 310,4 -4,4"/>
<text text-anchor="middle" x="153" y="-8.2" font-family="sans-serif" font-size="14.00">dependencies</text>
<g id="clust1" class="cluster">
<title>cluster_GetPassModule</title>
<polygon fill="none" stroke="black" stroke-dasharray="1,5" points="8,-32.8 8,-230.8 298,-230.8 298,-32.8 8,-32.8"/>
</g>
<g id="clust6" class="cluster">
<title>cluster_GetPassModule_providers</title>
<polygon fill="none" stroke="black" points="132,-40.8 132,-92.8 290,-92.8 290,-40.8 132,-40.8"/>
</g>
<g id="clust3" class="cluster">
<title>cluster_GetPassModule_imports</title>
<polygon fill="none" stroke="black" points="16,-40.8 16,-92.8 124,-92.8 124,-40.8 16,-40.8"/>
</g>
<g id="clust4" class="cluster">
<title>cluster_GetPassModule_exports</title>
<polygon fill="none" stroke="black" points="83,-170.8 83,-222.8 205,-222.8 205,-170.8 83,-170.8"/>
</g>
<!-- RolesModule -->
<g id="node1" class="node">
<title>RolesModule</title>
<polygon fill="#8dd3c7" stroke="black" points="115.94,-84.8 112.94,-88.8 91.94,-88.8 88.94,-84.8 24.06,-84.8 24.06,-48.8 115.94,-48.8 115.94,-84.8"/>
<text text-anchor="middle" x="70" y="-62.6" font-family="Times,serif" font-size="14.00">RolesModule</text>
</g>
<!-- GetPassModule -->
<g id="node2" class="node">
<title>GetPassModule</title>
<polygon fill="#8dd3c7" stroke="black" points="196.16,-149.8 193.16,-153.8 172.16,-153.8 169.16,-149.8 91.84,-149.8 91.84,-113.8 196.16,-113.8 196.16,-149.8"/>
<text text-anchor="middle" x="144" y="-127.6" font-family="Times,serif" font-size="14.00">GetPassModule</text>
</g>
<!-- RolesModule&#45;&gt;GetPassModule -->
<g id="edge1" class="edge">
<title>RolesModule&#45;&gt;GetPassModule</title>
<path fill="none" stroke="black" d="M103.69,-84.91C103.69,-84.91 103.69,-103.79 103.69,-103.79"/>
<polygon fill="black" stroke="black" points="100.19,-103.79 103.69,-113.79 107.19,-103.79 100.19,-103.79"/>
</g>
<!-- GetPassService  -->
<g id="node3" class="node">
<title>GetPassService </title>
<polygon fill="#fb8072" stroke="black" points="197.09,-214.8 90.91,-214.8 90.91,-178.8 197.09,-178.8 197.09,-214.8"/>
<text text-anchor="middle" x="144" y="-192.6" font-family="Times,serif" font-size="14.00">GetPassService </text>
</g>
<!-- GetPassModule&#45;&gt;GetPassService  -->
<g id="edge2" class="edge">
<title>GetPassModule&#45;&gt;GetPassService </title>
<path fill="none" stroke="black" stroke-dasharray="5,2" d="M144,-149.91C144,-149.91 144,-168.79 144,-168.79"/>
<polygon fill="black" stroke="black" points="140.5,-168.79 144,-178.79 147.5,-168.79 140.5,-168.79"/>
</g>
<!-- GetPassService -->
<g id="node4" class="node">
<title>GetPassService</title>
<ellipse fill="#fdb462" stroke="black" cx="211" cy="-66.8" rx="71.22" ry="18"/>
<text text-anchor="middle" x="211" y="-62.6" font-family="Times,serif" font-size="14.00">GetPassService</text>
</g>
<!-- GetPassService&#45;&gt;GetPassModule -->
<g id="edge3" class="edge">
<title>GetPassService&#45;&gt;GetPassModule</title>
<path fill="none" stroke="black" d="M168.11,-81.23C168.11,-81.23 168.11,-103.69 168.11,-103.69"/>
<polygon fill="black" stroke="black" points="164.61,-103.69 168.11,-113.69 171.61,-103.69 164.61,-103.69"/>
</g>
</g>
</svg>
