<?xml version="1.0" encoding="UTF-8" standalone="no"?>
<!DOCTYPE svg PUBLIC "-//W3C//DTD SVG 1.1//EN"
 "http://www.w3.org/Graphics/SVG/1.1/DTD/svg11.dtd">
<!-- Generated by graphviz version 5.0.0 (20220707.1540)
 -->
<!-- Title: dependencies Pages: 1 -->
<svg width="479pt" height="247pt"
 viewBox="0.00 0.00 479.00 246.80" xmlns="http://www.w3.org/2000/svg" xmlns:xlink="http://www.w3.org/1999/xlink">
<g id="graph0" class="graph" transform="scale(1 1) rotate(0) translate(4 242.8)">
<title>dependencies</title>
<polygon fill="white" stroke="transparent" points="-4,4 -4,-242.8 475,-242.8 475,4 -4,4"/>
<text text-anchor="middle" x="235.5" y="-8.2" font-family="sans-serif" font-size="14.00">dependencies</text>
<g id="clust1" class="cluster">
<title>cluster_PokazaniaModule</title>
<polygon fill="none" stroke="black" stroke-dasharray="1,5" points="8,-32.8 8,-230.8 463,-230.8 463,-32.8 8,-32.8"/>
</g>
<g id="clust6" class="cluster">
<title>cluster_PokazaniaModule_providers</title>
<polygon fill="none" stroke="black" points="144,-40.8 144,-92.8 455,-92.8 455,-40.8 144,-40.8"/>
</g>
<g id="clust3" class="cluster">
<title>cluster_PokazaniaModule_imports</title>
<polygon fill="none" stroke="black" points="16,-40.8 16,-92.8 136,-92.8 136,-40.8 16,-40.8"/>
</g>
<g id="clust4" class="cluster">
<title>cluster_PokazaniaModule_exports</title>
<polygon fill="none" stroke="black" points="103,-170.8 103,-222.8 345,-222.8 345,-170.8 103,-170.8"/>
</g>
<!-- GetPassModule -->
<g id="node1" class="node">
<title>GetPassModule</title>
<polygon fill="#8dd3c7" stroke="black" points="128.16,-84.8 125.16,-88.8 104.16,-88.8 101.16,-84.8 23.84,-84.8 23.84,-48.8 128.16,-48.8 128.16,-84.8"/>
<text text-anchor="middle" x="76" y="-62.6" font-family="Times,serif" font-size="14.00">GetPassModule</text>
</g>
<!-- PokazaniaModule -->
<g id="node2" class="node">
<title>PokazaniaModule</title>
<polygon fill="#8dd3c7" stroke="black" points="290.58,-149.8 287.58,-153.8 266.58,-153.8 263.58,-149.8 173.42,-149.8 173.42,-113.8 290.58,-113.8 290.58,-149.8"/>
<text text-anchor="middle" x="232" y="-127.6" font-family="Times,serif" font-size="14.00">PokazaniaModule</text>
</g>
<!-- GetPassModule&#45;&gt;PokazaniaModule -->
<g id="edge1" class="edge">
<title>GetPassModule&#45;&gt;PokazaniaModule</title>
<path fill="none" stroke="black" d="M119.91,-84.91C119.91,-104.14 119.91,-131.8 119.91,-131.8 119.91,-131.8 163.33,-131.8 163.33,-131.8"/>
<polygon fill="black" stroke="black" points="163.33,-135.3 173.33,-131.8 163.33,-128.3 163.33,-135.3"/>
</g>
<!-- DebtService  -->
<g id="node3" class="node">
<title>DebtService </title>
<polygon fill="#fb8072" stroke="black" points="337.19,-214.8 248.81,-214.8 248.81,-178.8 337.19,-178.8 337.19,-214.8"/>
<text text-anchor="middle" x="293" y="-192.6" font-family="Times,serif" font-size="14.00">DebtService </text>
</g>
<!-- PokazaniaModule&#45;&gt;DebtService  -->
<g id="edge2" class="edge">
<title>PokazaniaModule&#45;&gt;DebtService </title>
<path fill="none" stroke="black" stroke-dasharray="5,2" d="M269.6,-149.91C269.6,-149.91 269.6,-168.79 269.6,-168.79"/>
<polygon fill="black" stroke="black" points="266.1,-168.79 269.6,-178.79 273.1,-168.79 266.1,-168.79"/>
</g>
<!-- PokazaniaService  -->
<g id="node4" class="node">
<title>PokazaniaService </title>
<polygon fill="#fb8072" stroke="black" points="230.51,-214.8 111.49,-214.8 111.49,-178.8 230.51,-178.8 230.51,-214.8"/>
<text text-anchor="middle" x="171" y="-192.6" font-family="Times,serif" font-size="14.00">PokazaniaService </text>
</g>
<!-- PokazaniaModule&#45;&gt;PokazaniaService  -->
<g id="edge3" class="edge">
<title>PokazaniaModule&#45;&gt;PokazaniaService </title>
<path fill="none" stroke="black" stroke-dasharray="5,2" d="M201.98,-149.91C201.98,-149.91 201.98,-168.79 201.98,-168.79"/>
<polygon fill="black" stroke="black" points="198.48,-168.79 201.98,-178.79 205.48,-168.79 198.48,-168.79"/>
</g>
<!-- DebtService -->
<g id="node5" class="node">
<title>DebtService</title>
<ellipse fill="#fdb462" stroke="black" cx="388" cy="-66.8" rx="58.53" ry="18"/>
<text text-anchor="middle" x="388" y="-62.6" font-family="Times,serif" font-size="14.00">DebtService</text>
</g>
<!-- DebtService&#45;&gt;PokazaniaModule -->
<g id="edge4" class="edge">
<title>DebtService&#45;&gt;PokazaniaModule</title>
<path fill="none" stroke="black" d="M333.29,-73.76C333.29,-90.52 333.29,-131.8 333.29,-131.8 333.29,-131.8 300.63,-131.8 300.63,-131.8"/>
<polygon fill="black" stroke="black" points="300.63,-128.3 290.63,-131.8 300.63,-135.3 300.63,-128.3"/>
</g>
<!-- PokazaniaService -->
<g id="node6" class="node">
<title>PokazaniaService</title>
<ellipse fill="#fdb462" stroke="black" cx="232" cy="-66.8" rx="79.85" ry="18"/>
<text text-anchor="middle" x="232" y="-62.6" font-family="Times,serif" font-size="14.00">PokazaniaService</text>
</g>
<!-- PokazaniaService&#45;&gt;PokazaniaModule -->
<g id="edge5" class="edge">
<title>PokazaniaService&#45;&gt;PokazaniaModule</title>
<path fill="none" stroke="black" d="M232,-84.91C232,-84.91 232,-103.79 232,-103.79"/>
<polygon fill="black" stroke="black" points="228.5,-103.79 232,-113.79 235.5,-103.79 228.5,-103.79"/>
</g>
</g>
</svg>
